<?xml version="1.0" encoding="UTF-8"?>
<svg width="32" height="32" viewBox="0 0 32 32" fill="none" xmlns="http://www.w3.org/2000/svg">
  <rect width="32" height="32" rx="8" fill="#3872E0"/>
  <path d="M8 12C8 11.4477 8.44772 11 9 11H16C16.5523 11 17 11.4477 17 12C17 12.5523 16.5523 13 16 13H10V15H15C15.5523 15 16 15.4477 16 16C16 16.5523 15.5523 17 15 17H10V19H16C16.5523 19 17 19.4477 17 20C17 20.5523 16.5523 21 16 21H9C8.44772 21 8 20.5523 8 20V12Z" fill="white"/>
  <path d="M18 12C18 11.4477 18.4477 11 19 11H22.5C23.8807 11 25 12.1193 25 13.5C25 14.4943 24.3961 15.3431 23.5399 15.7088C24.3785 16.0893 25 16.9584 25 18C25 19.3807 23.8807 20.5 22.5 20.5H19C18.4477 20.5 18 20.0523 18 19.5V12ZM20 12.5V15H22.5C23.0523 15 23.5 14.5523 23.5 14C23.5 13.4477 23.0523 13 22.5 13H20V12.5ZM20 16.5V19H22.5C23.0523 19 23.5 18.5523 23.5 18C23.5 17.4477 23.0523 17 22.5 17H20V16.5Z" fill="white"/>
  <style>
    @media (prefers-color-scheme: dark) {
      rect { fill: #2A5CBD; }
    }
  </style>
</svg> 